<?xml version="1.0" encoding="UTF-8"?>
<svg xmlns="http://www.w3.org/2000/svg" viewBox="0 0 512 384" width="512" height="384">
  <defs>
    <linearGradient id="bg2048" x1="0" y1="0" x2="0" y2="1">
      <stop offset="0%" stop-color="#faf3e1"/>
      <stop offset="100%" stop-color="#e0c89a"/>
    </linearGradient>
  </defs>
  <rect width="512" height="384" fill="url(#bg2048)"/>
  <!-- Board background -->
  <rect x="96" y="32" width="320" height="320" rx="14" fill="#bbada0"/>
  <!-- Empty cells (background pattern) -->
  <g fill="#cdc1b4">
    <rect x="112" y="48"  width="68" height="68" rx="6"/>
    <rect x="188" y="48"  width="68" height="68" rx="6"/>
    <rect x="264" y="48"  width="68" height="68" rx="6"/>
    <rect x="340" y="48"  width="68" height="68" rx="6"/>
    <rect x="112" y="124" width="68" height="68" rx="6"/>
    <rect x="188" y="124" width="68" height="68" rx="6"/>
    <rect x="264" y="124" width="68" height="68" rx="6"/>
    <rect x="340" y="124" width="68" height="68" rx="6"/>
    <rect x="112" y="200" width="68" height="68" rx="6"/>
    <rect x="188" y="200" width="68" height="68" rx="6"/>
    <rect x="264" y="200" width="68" height="68" rx="6"/>
    <rect x="340" y="200" width="68" height="68" rx="6"/>
    <rect x="112" y="276" width="68" height="68" rx="6"/>
    <rect x="188" y="276" width="68" height="68" rx="6"/>
    <rect x="264" y="276" width="68" height="68" rx="6"/>
    <rect x="340" y="276" width="68" height="68" rx="6"/>
  </g>
  <!-- Tiles with values (authentic 2048 palette) -->
  <g font-family="system-ui, -apple-system, 'Segoe UI', sans-serif" font-weight="800" text-anchor="middle">
    <!-- Row 1 -->
    <g><rect x="112" y="48"  width="68" height="68" rx="6" fill="#eee4da"/><text x="146" y="92" font-size="28" fill="#776e65">2</text></g>
    <g><rect x="188" y="48"  width="68" height="68" rx="6" fill="#ede0c8"/><text x="222" y="92" font-size="28" fill="#776e65">4</text></g>
    <g><rect x="264" y="48"  width="68" height="68" rx="6" fill="#f2b179"/><text x="298" y="92" font-size="26" fill="#ffffff">8</text></g>
    <g><rect x="340" y="48"  width="68" height="68" rx="6" fill="#f59563"/><text x="374" y="91" font-size="24" fill="#ffffff">16</text></g>
    <!-- Row 2 -->
    <g><rect x="112" y="124" width="68" height="68" rx="6" fill="#f67c5f"/><text x="146" y="167" font-size="22" fill="#ffffff">32</text></g>
    <g><rect x="188" y="124" width="68" height="68" rx="6" fill="#f65e3b"/><text x="222" y="167" font-size="22" fill="#ffffff">64</text></g>
    <g><rect x="264" y="124" width="68" height="68" rx="6" fill="#edcf72"/><text x="298" y="166" font-size="19" fill="#ffffff">128</text></g>
    <g><rect x="340" y="124" width="68" height="68" rx="6" fill="#edcc61"/><text x="374" y="166" font-size="19" fill="#ffffff">256</text></g>
    <!-- Row 3 -->
    <g><rect x="112" y="200" width="68" height="68" rx="6" fill="#edc850"/><text x="146" y="242" font-size="19" fill="#ffffff">512</text></g>
    <g><rect x="188" y="200" width="68" height="68" rx="6" fill="#edc53f"/><text x="222" y="242" font-size="17" fill="#ffffff">1024</text></g>
    <g><rect x="264" y="200" width="68" height="68" rx="6" fill="#edc22e"/><text x="298" y="242" font-size="17" fill="#ffffff">2048</text></g>
  </g>
  <!-- Title chip -->
  <g transform="translate(20, 22)">
    <rect width="90" height="34" rx="8" fill="#776e65"/>
    <text x="45" y="23" text-anchor="middle"
          font-family="system-ui, -apple-system, 'Segoe UI', sans-serif"
          font-size="18" font-weight="800" fill="#ffffff" letter-spacing="0.04em">2048</text>
  </g>
</svg>
